<svg width="136" height="141" viewBox="0 0 136 141" fill="none" xmlns="http://www.w3.org/2000/svg">
<g clip-path="url(#clip0_1_300)">
<path d="M97.6652 80.9272H75.7767L66.3308 32.9011H88.2193L97.6652 80.9272Z" fill="#00BDB1"/>
<path d="M96.7242 80.9272H75.7767L66.7 38.4303L87.2783 32.9011L96.7242 80.9272Z" fill="white"/>
<path d="M59.4202 80.9272H37.7715L17.1296 52.4971H38.7784L59.4202 80.9272Z" fill="#00BDB1"/>
<path d="M58.4791 80.9272H37.7713L18.606 55.446L37.8372 52.4971L58.4791 80.9272Z" fill="white"/>
<path d="M59.6599 80.9272H39.042L67.6013 32.9011H88.2192L59.6599 80.9272Z" fill="#00BDB1"/>
<path d="M1.27075 80.9272H21.8886L38.7965 52.4971H18.1786L1.27075 80.9272Z" fill="#00BDB1"/>
<path d="M36.543 80.9272H57.1608L74.0687 52.4971H53.4508L36.543 80.9272Z" fill="#00BDB1"/>
<path d="M95.1365 81.134H74.147L103.24 33.0837H125.024L95.1365 81.134Z" fill="#00BDB1"/>
<path d="M58.3893 80.9272H37.7715L66.3308 32.9011H86.9547L58.3893 80.9272Z" fill="white"/>
<path d="M0 80.9272H20.6179L37.5257 52.4971H16.9078L0 80.9272Z" fill="white"/>
<path d="M134.729 31.9495L133.944 0L105.523 14.6999L112.727 18.9554L75.7766 80.9272H96.3945L127.975 27.9633L134.729 31.9495Z" fill="white"/>
</g>
<path d="M1.57764 121.074H6.55194V112.778H12.7771V108.893H6.55194V104.57H14.8715V100.568H1.57764V121.074Z" fill="white"/>
<path d="M17.486 121.074H22.4603V104.774H17.486V121.074ZM19.9877 103.08C21.733 103.08 22.9257 101.882 22.9257 100.393C22.9257 98.8737 21.733 97.676 19.9877 97.676C18.2132 97.676 17.0205 98.8737 17.0205 100.393C17.0205 101.882 18.2132 103.08 19.9877 103.08Z" fill="white"/>
<path d="M37.2646 121.074H42.2098V111.551C42.2098 107.169 39.7081 104.599 35.9555 104.599C33.7738 104.599 32.0284 105.563 31.0394 106.936V104.774H26.0651V121.074H31.0394V112.223C31.0394 110.003 32.2612 108.776 34.152 108.776C36.0428 108.776 37.2646 110.003 37.2646 112.223V121.074Z" fill="white"/>
<path d="M61.5493 112.924C61.5493 107.754 57.884 104.54 53.1133 104.54C48.3717 104.54 44.6774 107.754 44.6774 112.924C44.6774 118.094 48.2845 121.307 53.0552 121.307C57.8258 121.307 61.5493 118.094 61.5493 112.924ZM49.739 112.924C49.739 110.149 51.3098 108.864 53.1133 108.864C54.8587 108.864 56.4877 110.149 56.4877 112.924C56.4877 115.67 54.8296 116.984 53.0552 116.984C51.2516 116.984 49.739 115.67 49.739 112.924Z" fill="white"/>
<path d="M68.2899 121.074H74.3114L77.6858 107.578L80.9438 121.074H86.9654L92.2887 100.568H86.9363L83.9691 115.494L80.4784 100.568H75.0096L71.3734 115.494L68.4353 100.568H63.112L68.2899 121.074Z" fill="white"/>
<path d="M94.7834 121.074H99.7577V104.774H94.7834V121.074ZM97.2851 103.08C99.0305 103.08 100.223 101.882 100.223 100.393C100.223 98.8737 99.0305 97.676 97.2851 97.676C95.5106 97.676 94.318 98.8737 94.318 100.393C94.318 101.882 95.5106 103.08 97.2851 103.08Z" fill="white"/>
<path d="M116.54 116.342C116.453 110.266 107.668 112.106 107.668 109.506C107.668 108.718 108.308 108.25 109.471 108.25C110.868 108.25 111.711 108.98 111.857 110.09H116.453C116.133 106.877 113.806 104.54 109.617 104.54C105.37 104.54 103.013 106.819 103.013 109.594C103.013 115.582 111.857 113.683 111.857 116.312C111.857 117.043 111.188 117.627 109.908 117.627C108.54 117.627 107.522 116.867 107.406 115.728H102.49C102.723 118.883 105.632 121.307 109.966 121.307C114.038 121.307 116.54 119.175 116.54 116.342Z" fill="white"/>
<path d="M126.739 108.542C128.397 108.542 129.794 109.565 129.794 111.347H123.569C123.859 109.535 125.11 108.542 126.739 108.542ZM134.506 115.67H129.212C128.805 116.546 128.019 117.247 126.623 117.247C125.023 117.247 123.714 116.254 123.539 114.122H134.797C134.855 113.625 134.884 113.128 134.884 112.661C134.884 107.695 131.539 104.54 126.798 104.54C121.969 104.54 118.594 107.754 118.594 112.924C118.594 118.094 122.027 121.307 126.798 121.307C130.841 121.307 133.721 118.854 134.506 115.67Z" fill="white"/>
<path d="M3.3634 138.541L4.28833 138.532L5.82683 133.403L7.31038 138.532H8.24447L10.0943 132.16H9.19688L7.79574 137.544L6.3305 132.16H5.39641L3.85791 137.563L2.46594 132.16H1.57764L3.3634 138.541Z" fill="white"/>
<path d="M11.0063 138.532H11.8397V133.522H11.0063V138.532ZM11.4367 132.708C11.7389 132.708 11.9862 132.462 11.9862 132.142C11.9862 131.822 11.7389 131.575 11.4367 131.575C11.1162 131.575 10.869 131.822 10.869 132.142C10.869 132.462 11.1162 132.708 11.4367 132.708Z" fill="white"/>
<path d="M16.8681 137.17C16.8315 135.378 13.9193 136.027 13.9193 134.838C13.9193 134.436 14.2856 134.144 14.8992 134.144C15.5677 134.144 15.9524 134.509 15.989 135.012H16.8223C16.7674 134.034 16.0348 133.44 14.9267 133.44C13.8094 133.44 13.086 134.071 13.086 134.838C13.086 136.703 16.0531 136.054 16.0531 137.17C16.0531 137.581 15.6868 137.91 15.0274 137.91C14.3223 137.91 13.8919 137.544 13.8461 137.06H12.9852C13.0402 137.974 13.8644 138.614 15.0366 138.614C16.1447 138.614 16.8681 137.992 16.8681 137.17Z" fill="white"/>
<path d="M20.1783 134.144C21.0391 134.144 21.7717 134.683 21.7626 135.661H18.594C18.6856 134.683 19.3633 134.144 20.1783 134.144ZM22.5227 136.987H21.6252C21.4421 137.526 20.9659 137.91 20.2149 137.91C19.3633 137.91 18.649 137.352 18.5848 136.338H22.5959C22.6143 136.164 22.6234 136.018 22.6234 135.835C22.6234 134.464 21.671 133.44 20.2149 133.44C18.7497 133.44 17.7332 134.436 17.7332 136.018C17.7332 137.608 18.7863 138.614 20.2149 138.614C21.4604 138.614 22.2663 137.901 22.5227 136.987Z" fill="white"/>
<path d="M23.7234 138.532H24.5568V131.767H23.7234V138.532Z" fill="white"/>
<path d="M27.8819 137.581L26.3068 133.522H25.3818L27.4057 138.477L26.4166 140.89H27.2775L30.2995 133.522H29.4387L27.8819 137.581Z" fill="white"/>
<path d="M40.8225 138.532H41.6467V135.579C41.6467 134.144 40.7584 133.431 39.6137 133.431C38.8444 133.431 38.1301 133.824 37.8371 134.546C37.5074 133.796 36.8206 133.431 35.9964 133.431C35.337 133.431 34.7417 133.714 34.4121 134.244V133.522H33.5787V138.532H34.4121V135.771C34.4121 134.692 34.989 134.153 35.8315 134.153C36.6557 134.153 37.2052 134.674 37.2052 135.698V138.532H38.0294V135.771C38.0294 134.692 38.6063 134.153 39.4488 134.153C40.273 134.153 40.8225 134.674 40.8225 135.698V138.532Z" fill="white"/>
<path d="M42.7023 136.009C42.7023 137.563 43.7372 138.614 45.0742 138.614C45.9991 138.614 46.6493 138.139 46.9515 137.599V138.532H47.794V133.522H46.9515V134.436C46.6585 133.915 46.0174 133.44 45.0833 133.44C43.7371 133.44 42.7023 134.445 42.7023 136.009ZM46.9515 136.018C46.9515 137.197 46.164 137.883 45.2482 137.883C44.3324 137.883 43.554 137.188 43.554 136.009C43.554 134.829 44.3324 134.162 45.2482 134.162C46.164 134.162 46.9515 134.857 46.9515 136.018Z" fill="white"/>
<path d="M52.8746 138.532H53.6988V135.579C53.6988 134.144 52.8105 133.431 51.6474 133.431C50.9698 133.431 50.3653 133.714 50.0357 134.235V133.522H49.2023V138.532H50.0357V135.762C50.0357 134.683 50.6218 134.153 51.4734 134.153C52.3159 134.153 52.8746 134.674 52.8746 135.698V138.532Z" fill="white"/>
<path d="M54.7487 136.009C54.7487 137.563 55.7835 138.614 57.1297 138.614C58.0455 138.614 58.6957 138.13 58.9979 137.59V138.641C58.9979 139.711 58.3294 140.278 57.4411 140.278C56.6169 140.278 56.0216 139.866 55.8385 139.263H55.0143C55.1791 140.333 56.1223 141 57.4411 141C58.9155 141 59.8404 140.022 59.8404 138.641V133.522H58.9979V134.436C58.7048 133.897 58.0455 133.44 57.1297 133.44C55.7835 133.44 54.7487 134.445 54.7487 136.009ZM58.9979 136.018C58.9979 137.197 58.2103 137.883 57.2945 137.883C56.3788 137.883 55.6004 137.188 55.6004 136.009C55.6004 134.829 56.3788 134.162 57.2945 134.162C58.2103 134.162 58.9979 134.857 58.9979 136.018Z" fill="white"/>
<path d="M63.3824 134.144C64.2433 134.144 64.9759 134.683 64.9667 135.661H61.7981C61.8897 134.683 62.5674 134.144 63.3824 134.144ZM65.7268 136.987H64.8294C64.6462 137.526 64.17 137.91 63.4191 137.91C62.5674 137.91 61.8531 137.352 61.789 136.338H65.8001C65.8184 136.164 65.8276 136.018 65.8276 135.835C65.8276 134.464 64.8751 133.44 63.4191 133.44C61.9538 133.44 60.9373 134.436 60.9373 136.018C60.9373 137.608 61.9905 138.614 63.4191 138.614C64.6645 138.614 65.4704 137.901 65.7268 136.987Z" fill="white"/>
<path d="M71.2738 137.581L69.6987 133.522H68.7738L70.7976 138.477L69.8086 140.89H70.6694L73.6915 133.522H72.8306L71.2738 137.581Z" fill="white"/>
<path d="M79.2912 136.018C79.2912 134.436 78.1831 133.44 76.7545 133.44C75.3351 133.44 74.2178 134.436 74.2178 136.018C74.2178 137.608 75.2984 138.614 76.7179 138.614C78.1465 138.614 79.2912 137.608 79.2912 136.018ZM75.0695 136.018C75.0695 134.756 75.8662 134.162 76.7454 134.162C77.6062 134.162 78.4395 134.756 78.4395 136.018C78.4395 137.288 77.5879 137.883 76.7179 137.883C75.8479 137.883 75.0695 137.288 75.0695 136.018Z" fill="white"/>
<path d="M84.8376 133.522H84.0042V136.274C84.0042 137.352 83.4273 137.883 82.5665 137.883C81.724 137.883 81.1653 137.362 81.1653 136.347V133.522H80.3411V136.457C80.3411 137.892 81.2477 138.605 82.4016 138.605C83.0701 138.605 83.6837 138.312 84.0042 137.791V138.532H84.8376V133.522Z" fill="white"/>
<path d="M87.078 135.808C87.078 134.647 87.6824 134.29 88.4791 134.29H88.6989V133.431C87.9022 133.431 87.3619 133.778 87.078 134.336V133.522H86.2447V138.532H87.078V135.808Z" fill="white"/>
<path d="M92.2581 138.532H93.0914V134.208H94.1446V133.522H93.0914V133.166C93.0914 132.517 93.3387 132.242 94.0896 132.242V131.547C92.8075 131.547 92.2581 132.05 92.2581 133.166V133.522H91.6079V134.208H92.2581V138.532Z" fill="white"/>
<path d="M95.1162 138.532H95.9496V133.522H95.1162V138.532ZM95.5466 132.708C95.8488 132.708 96.0961 132.462 96.0961 132.142C96.0961 131.822 95.8488 131.575 95.5466 131.575C95.2261 131.575 94.9789 131.822 94.9789 132.142C94.9789 132.462 95.2261 132.708 95.5466 132.708Z" fill="white"/>
<path d="M101.042 138.532H101.866V135.579C101.866 134.144 100.978 133.431 99.815 133.431C99.1373 133.431 98.5329 133.714 98.2032 134.235V133.522H97.3699V138.532H98.2032V135.762C98.2032 134.683 98.7893 134.153 99.641 134.153C100.484 134.153 101.042 134.674 101.042 135.698V138.532Z" fill="white"/>
<path d="M102.916 136.009C102.916 137.563 103.951 138.614 105.288 138.614C106.213 138.614 106.863 138.139 107.165 137.599V138.532H108.008V133.522H107.165V134.436C106.872 133.915 106.231 133.44 105.297 133.44C103.951 133.44 102.916 134.445 102.916 136.009ZM107.165 136.018C107.165 137.197 106.378 137.883 105.462 137.883C104.546 137.883 103.768 137.188 103.768 136.009C103.768 134.829 104.546 134.162 105.462 134.162C106.378 134.162 107.165 134.857 107.165 136.018Z" fill="white"/>
<path d="M113.089 138.532H113.913V135.579C113.913 134.144 113.024 133.431 111.861 133.431C111.184 133.431 110.579 133.714 110.25 134.235V133.522H109.416V138.532H110.25V135.762C110.25 134.683 110.836 134.153 111.687 134.153C112.53 134.153 113.089 134.674 113.089 135.698V138.532Z" fill="white"/>
<path d="M114.963 136.018C114.963 137.608 115.979 138.614 117.408 138.614C118.653 138.614 119.468 137.919 119.725 136.923H118.827C118.644 137.554 118.149 137.91 117.408 137.91C116.492 137.91 115.814 137.261 115.814 136.018C115.814 134.793 116.492 134.144 117.408 134.144C118.149 134.144 118.653 134.528 118.827 135.131H119.725C119.468 134.08 118.653 133.44 117.408 133.44C115.979 133.44 114.963 134.445 114.963 136.018Z" fill="white"/>
<path d="M122.97 134.144C123.831 134.144 124.564 134.683 124.555 135.661H121.386C121.478 134.683 122.155 134.144 122.97 134.144ZM125.315 136.987H124.417C124.234 137.526 123.758 137.91 123.007 137.91C122.155 137.91 121.441 137.352 121.377 136.338H125.388C125.406 136.164 125.415 136.018 125.415 135.835C125.415 134.464 124.463 133.44 123.007 133.44C121.542 133.44 120.525 134.436 120.525 136.018C120.525 137.608 121.578 138.614 123.007 138.614C124.252 138.614 125.058 137.901 125.315 136.987Z" fill="white"/>
<path d="M130.124 137.17C130.087 135.378 127.175 136.027 127.175 134.838C127.175 134.436 127.541 134.144 128.155 134.144C128.823 134.144 129.208 134.509 129.244 135.012H130.078C130.023 134.034 129.29 133.44 128.182 133.44C127.065 133.44 126.341 134.071 126.341 134.838C126.341 136.703 129.309 136.054 129.309 137.17C129.309 137.581 128.942 137.91 128.283 137.91C127.578 137.91 127.147 137.544 127.102 137.06H126.241C126.296 137.974 127.12 138.614 128.292 138.614C129.4 138.614 130.124 137.992 130.124 137.17Z" fill="white"/>
<path d="M131.584 136.731H132.28L132.381 132.16H131.483L131.584 136.731ZM132.518 138.02C132.518 137.7 132.271 137.453 131.969 137.453C131.648 137.453 131.401 137.7 131.401 138.02C131.401 138.34 131.648 138.587 131.969 138.587C132.271 138.587 132.518 138.34 132.518 138.02Z" fill="white"/>
<defs>
<clipPath id="clip0_1_300">
<rect width="136" height="80.9272" fill="white"/>
</clipPath>
</defs>
</svg>
