<svg width="20" height="12" viewBox="0 0 20 12" fill="none" xmlns="http://www.w3.org/2000/svg">
<path d="M4.1665 5.99996C4.1665 5.35563 4.68884 4.83329 5.33317 4.83329H14.6665C15.3108 4.83329 15.8332 5.35563 15.8332 5.99996C15.8332 6.64429 15.3108 7.16663 14.6665 7.16663H5.33317C4.68884 7.16663 4.1665 6.64429 4.1665 5.99996ZM0.666504 1.33329C0.666504 0.68896 1.18884 0.166626 1.83317 0.166626H18.1665C18.8108 0.166626 19.3332 0.68896 19.3332 1.33329C19.3332 1.97762 18.8108 2.49996 18.1665 2.49996H1.83317C1.18884 2.49996 0.666504 1.97762 0.666504 1.33329ZM7.6665 10.6666C7.6665 10.0223 8.18884 9.49996 8.83317 9.49996H11.1665C11.8108 9.49996 12.3332 10.0223 12.3332 10.6666C12.3332 11.311 11.8108 11.8333 11.1665 11.8333H8.83317C8.18884 11.8333 7.6665 11.311 7.6665 10.6666Z" fill="white"/>
</svg>
